<svg width="64" height="64" viewBox="0 0 64 64" fill="none" xmlns="http://www.w3.org/2000/svg">
<mask id="mask0_48240_74812" style="mask-type:alpha" maskUnits="userSpaceOnUse" x="0" y="0" width="64" height="64">
<path d="M0 12C0 5.37258 5.37258 0 12 0H52C58.6274 0 64 5.37258 64 12V52C64 58.6274 58.6274 64 52 64H12C5.37258 64 0 58.6274 0 52V12Z" fill="white"/>
</mask>
<g mask="url(#mask0_48240_74812)">
<path d="M0 12C0 5.37258 5.37258 0 12 0H52C58.6274 0 64 5.37258 64 12V52C64 58.6274 58.6274 64 52 64H12C5.37258 64 0 58.6274 0 52V12Z" fill="url(#paint0_radial_48240_74812)"/>
</g>
<path d="M26.993 26.3187C23.6722 29.6521 23.7074 35.0776 27.0282 38.4109C30.3491 41.7442 35.7542 41.7797 39.0752 38.4464C39.2518 38.2691 39.6404 37.8435 40.241 37.1343L36.2489 33.0917C35.5777 33.8719 35.1891 34.3329 35.1184 34.4038C33.9879 35.5386 32.1509 35.5386 31.0204 34.4038C29.8899 33.2689 29.8899 31.4251 30.985 30.3258C32.0802 29.2265 33.9173 29.2265 35.0477 30.3613L45.6815 41.1414C42.7493 45.3967 37.9093 48.0563 32.6102 48.0563C23.8488 48.0563 16.7125 40.8577 16.7125 31.9925C16.7125 23.1272 23.8488 15.9287 32.6102 15.9287C37.7327 15.9287 42.4313 18.4109 45.3636 22.418C44.2684 23.6946 42.9966 25.113 41.972 26.3542C41.7601 26.6379 41.5127 26.8861 41.3008 27.1343L45.2928 31.1769C45.6109 30.7868 45.9288 30.4322 46.2821 30.0067C47.5892 28.4464 49.0376 26.8152 50.3801 25.2549C50.91 24.6521 51.4046 24.1201 51.7932 23.6946C51.9698 23.5173 52.1112 23.34 52.2171 23.2336C52.2407 23.2099 52.2525 23.1627 52.2525 23.0918C48.8609 15.3613 41.1949 10.2549 32.6102 10.2549C20.7046 10.2549 11.0601 20.0067 11.0601 31.9925C11.0601 43.9783 20.7047 53.7301 32.6102 53.7301C38.0154 53.7301 42.5019 52.0279 46.8826 48.2691C50.8746 44.8648 52.6763 40.1838 52.6763 40.1838L39.0045 26.3188C35.6483 23.0209 30.3138 23.0209 26.993 26.3187Z" fill="white"/>
<defs>
<radialGradient id="paint0_radial_48240_74812" cx="0" cy="0" r="1" gradientUnits="userSpaceOnUse" gradientTransform="translate(49.125 48.9375) rotate(-135) scale(111.458)">
<stop offset="0.1" stop-color="#00DEC0"/>
<stop offset="1" stop-color="#00C5E5"/>
</radialGradient>
</defs>
</svg>
